PathFileType	4	(X/Y/Z)	58_1_50_p1_0-188.trc
DataRate	CameraRate	NumFrames	NumMarkers	Units	OrigDataRate	OrigDataStartFrame	OrigNumFrames
34.0	34.0	6	27	m	34.0	47	189
Frame#	Time	RHip			RKnee			RAnkle			RBigToe			RSmallToe			RHeel			LHip			LKnee			LAnkle			LBigToe			LSmallToe			LHeel			Neck			Head			Nose			RShoulder			RElbow			RWrist			RThumb			RIndex			RPinky			LShoulder			LElbow			LWrist			LThumb			LIndex			LPinky			
		X1	Y1	Z1	X2	Y2	Z2	X3	Y3	Z3	X4	Y4	Z4	X5	Y5	Z5	X6	Y6	Z6	X7	Y7	Z7	X8	Y8	Z8	X9	Y9	Z9	X10	Y10	Z10	X11	Y11	Z11	X12	Y12	Z12	X13	Y13	Z13	X14	Y14	Z14	X15	Y15	Z15	X16	Y16	Z16	X17	Y17	Z17	X18	Y18	Z18	X19	Y19	Z19	X20	Y20	Z20	X21	Y21	Z21	X22	Y22	Z22	X23	Y23	Z23	X24	Y24	Z24	X25	Y25	Z25	X26	Y26	Z26	X27	Y27	Z27	
47	1.3823529411764706	0.3520886345222655	0.4652838809817837	1.001678424370628	0.3408434142766676	0.6279343348060233	1.4551776770270404	0.3386338513910797	0.7592093147931908	1.8934518399745848	0.2890951784328551	0.5481177044819198	1.95376300814051	0.3625227705518798	0.570658836915745	1.9413897117031962	0.299071819947878	0.8575189855512707	1.9596283767505307	0.15172185972083463	0.47645068255424805	0.9973394742707807	0.14698440639873528	0.6207984337619433	1.4558911841857674	0.13179527453971318	0.7531391082711646	1.8905362040955913	0.1316750308358093	0.5417983921037971	1.9398248408351704	0.0740300653325071	0.6124861873436822	1.9575526332379873	0.1451084740859974	0.8337479241996208	1.9434341509683035	0.24408493145017618	0.39938374235028884	0.4433466383615857	0.2616205114828608	0.22615916658450338	0.22173657953549894	0.2523694746862185	0.2129999573082558	0.3675247183630802	0.3849813755144514	0.42607207406800857	0.5092683159926792	0.4329318385526331	0.3551745359841125	0.7473338602116687	0.3581748288246705	0.26975655810465543	0.6029483144585105	0.26844942722772563	0.22842534887676244	0.5101327916284073	0.2652329998525926	0.19862127808662666	0.5090148898124934	0.2881017306715941	0.21704212455949967	0.5402810485835692	0.09071240013628933	0.45100175044572893	0.5122442580132028	0.0455018240976682	0.45611060279449755	0.7562286222000951	0.16860266586958345	0.287318984551266	0.8847769110734698	0.2592429143144894	0.24920621981568694	0.9271279890655832	0.2591950340400525	0.2523457581562531	0.9635202447949166	0.2148105579200097	0.3112468319903422	0.9831580907501558
48	1.411764705882353	0.35226784956031315	0.465386629903222	0.9939192968429317	0.34077878880909224	0.6279188106891244	1.455125952575966	0.3376140445085515	0.7611013266258215	1.8981975876088868	0.2847556830097243	0.5340063116440673	1.9477100128989273	0.3613040271715023	0.57132509462049	1.9456392731415884	0.29897978116020096	0.8579752871887711	1.959410977431668	0.15178626262729034	0.47681128976631126	0.9970258835782123	0.14704165075384143	0.6204908070018766	1.4559746053921807	0.13114780541035334	0.7550166703252449	1.886499880941558	0.13160029098774637	0.5417089171952847	1.9399789693939606	0.07797058223154689	0.6169338573089035	1.9546651236265586	0.14493455846830536	0.8344862065236676	1.938873231838494	0.24086192009163274	0.38751779522839175	0.44409149218578114	0.25802257828171293	0.23777705912947505	0.22018220537324706	0.25240937765233706	0.21280890234096367	0.36750137109863423	0.38477137419071455	0.4244579392198366	0.5060666179510984	0.42412575849506884	0.3391350967580629	0.7393897894201256	0.34690635342162396	0.23286263729171566	0.589868227091999	0.27921039887648674	0.2500978856351666	0.5010273467955793	0.26547762205067416	0.18974787679116456	0.5006117307907599	0.288380316817346	0.1950085765396294	0.5257030124502202	0.09077986562447535	0.45089534258148206	0.5122606638377836	0.04134658539171516	0.4696461669994542	0.757096403978648	0.16451508770488343	0.2996918080205195	0.8860509928576723	0.2584428855514639	0.2445999702182955	0.9161331512240501	0.2593377974047913	0.25236782459531937	0.9634512417497326	0.21495217841614736	0.3110207520427146	0.9831917220899565
49	1.4411764705882353	0.3520718484236261	0.4665077537346528	0.9903121232809186	0.34074125075502215	0.6278380491919942	1.4550488777734614	0.3376021460226416	0.761047005738672	1.8981825672933308	0.28471362519495785	0.5335780951792453	1.9475398328780564	0.3614122557297961	0.5713173015794034	1.945684064151358	0.29897390044781746	0.8578683569202687	1.9595517164259104	0.15102945229721296	0.4755298332550947	0.9891659683860842	0.14694753753627446	0.6202923288313649	1.455950746677896	0.13116464062319372	0.7550510695741487	1.8865689042319875	0.13161539161722494	0.5417072901506316	1.9400660382967883	0.07348099026543049	0.6146392250408762	1.9537767872146639	0.14502933498231327	0.8339870204474019	1.938704763616473	0.2411169138906435	0.38956367137426806	0.4477274160342813	0.25805884209090363	0.23789091138037305	0.22020899681898382	0.2526508881259834	0.21451324393667845	0.3703022855738956	0.3848997495274402	0.4240418201184527	0.5059155589520173	0.4247979324282178	0.33131492561292036	0.7421770464039864	0.35529335578979027	0.2454945711206455	0.5899064093782962	0.28700846608388736	0.2561291406926499	0.495456767370111	0.2719592669630512	0.21037878156959847	0.49675697869556623	0.3065456101547759	0.23701198560751163	0.5237231520539929	0.08663616666463132	0.44945118813584045	0.5125142009677593	0.041114227790145466	0.46908371927705655	0.7566171410387502	0.1644822878604343	0.2995334265581425	0.8860115482475996	0.25839296831502384	0.2448715160651603	0.9160386427928695	0.25935053620869386	0.2525664046587646	0.963438944580738	0.21495329437983826	0.31093910907167877	0.9832223638682167
50	1.4705882352941178	0.35208909962055707	0.466604724230218	0.9904415592794192	0.3416890790082893	0.6307264195086123	1.4598092771509699	0.3376118260305535	0.760947307870919	1.898118409949033	0.2846635854252009	0.5343045145494644	1.9477649408158786	0.3613076754910688	0.5718074352130335	1.9457327542691825	0.2990002933323078	0.8577143449848661	1.9595209032112166	0.1516118118994032	0.47765853155238175	0.9935561966660508	0.14685517221402417	0.6205522661073986	1.4558234925739502	0.1311371129297057	0.7545339042730844	1.886164027893348	0.13167519576973857	0.5417167205777853	1.9399802950852694	0.07803469801137286	0.6167817562203547	1.9546344112633878	0.14486893912558946	0.833828292970161	1.9384102769878488	0.24128556667084888	0.38926964394866137	0.45107132334227923	0.2616285654303242	0.22646314098222597	0.2216486643656523	0.2555794432817568	0.2245558840510147	0.3694882649952305	0.38484761063881745	0.4231567512427303	0.5056558610542033	0.42384998405473295	0.3404329267341791	0.7354318673706264	0.35975213498214176	0.28255681319190623	0.5827322753470866	0.28954937149655735	0.2574330195922978	0.4849724920893792	0.2782073096871204	0.22095946077053027	0.4854998430205271	0.3101373662934063	0.24802455405971938	0.5199807744186847	0.08657865710132706	0.449591640046883	0.5123469675431261	0.04164017583327485	0.46829796911752586	0.753330035168843	0.16428711569062804	0.2992873246830315	0.8859643649947553	0.25473447584915954	0.245498467361881	0.9192916678109484	0.2553055750229513	0.25187882793730243	0.9599117481421784	0.21477402879489427	0.31098030820197003	0.9829547009332965
51	1.5	0.3522136002274808	0.4653267450014247	0.9939208886259764	0.3407061820888614	0.6272992928483598	1.4547623246147987	0.33769560680084687	0.7610499012096964	1.8980254265281633	0.28492989934799495	0.5332869250392198	1.9476241255549396	0.36139630530623373	0.5707622238356347	1.9456059696680164	0.29921016724996524	0.8575565543547758	1.9593509686858241	0.15101304320167866	0.4755323542744331	0.9891706793817373	0.14690186130886973	0.6206025880644936	1.4556888708146296	0.13121566190992934	0.7541488594033213	1.8859790827922351	0.13457734342645378	0.5555589743450321	1.9460562245559991	0.07348091939626096	0.6149095300272824	1.953751542961696	0.1441464445862963	0.830017805934678	1.9327204661113904	0.23700271574046125	0.3998733057306632	0.44687234496236117	0.2581066143522736	0.23807067406701596	0.22024887519429565	0.2525747948005989	0.21453864390128502	0.3703398601797673	0.3848838134529575	0.4231326974160812	0.5055626416544036	0.4189496793585361	0.3268320556288123	0.7313967260756876	0.3514650980853395	0.2586985277765835	0.5761001274541269	0.29729042912062487	0.27742831774879256	0.48597410027177124	0.28305202616806424	0.24143276058329766	0.4843240891058506	0.31647264916137513	0.22094748899213476	0.5138263172676923	0.0904812880775853	0.4512829868514378	0.5121204503314425	0.03676258101958958	0.4815948548813791	0.7537660124909646	0.16024045917343208	0.2985878056936984	0.8825003062610212	0.25480656080929315	0.24560975222636258	0.9195420508074316	0.25526395069280466	0.2520807814332827	0.9600115531136235	0.21523046734820123	0.29762001015283546	0.9812289697625847
52	1.5294117647058822	0.3521659310182153	0.4654658777903974	0.9942342545533741	0.34058299151715354	0.6277432428866628	1.4551729514579324	0.33857745919375315	0.7594665766554208	1.8931532511866085	0.28501342315504496	0.5339376697155981	1.947827814623881	0.3615399150400389	0.5716395954339817	1.9458773464095163	0.30023522417012405	0.8560562488715676	1.954061195433429	0.15158418546079036	0.477659622982241	0.9936807993431053	0.14248016452618853	0.6196751350687176	1.4558479988466262	0.13142622117493674	0.7539130855891655	1.8859473840709402	0.13464150937283703	0.5557355322899941	1.9459465794911355	0.0779350349283495	0.617373184350849	1.9546568773559507	0.14542689735998457	0.828735503411569	1.927982047792793	0.23681084108249986	0.4002971192177364	0.44345057175366	0.2577842276895961	0.23671858386368444	0.21714670036925562	0.2523481255637829	0.21302658515943068	0.36738062308781955	0.38082154171439203	0.4133684792145775	0.5094216771015305	0.41981136607867314	0.3291361226374843	0.7426598062241637	0.3433595103197305	0.22228180473885992	0.5896067515200248	0.28334839768754094	0.24722529562851578	0.4982661013788759	0.26195905845358525	0.20093526716617685	0.4972723354548814	0.2856230929968225	0.18500140692122696	0.5257282231725927	0.0864768642332674	0.4500425250133458	0.5125010285955088	0.03695631922345508	0.4830705621725771	0.7546853643143616	0.15749005060656807	0.2862397973694836	0.8810689578050008	0.25156288604232285	0.2586157638823619	0.9244771211417132	0.2546842671011802	0.2525467541385325	0.9566588967338563	0.20360800122568373	0.2973859141062906	0.9814558732844789
